<svg width="731" height="108" fill="none" xmlns="http://www.w3.org/2000/svg"><mask id="a" style="mask-type:alpha" maskUnits="userSpaceOnUse" x="0" y="0" width="731" height="108"><path fill="#fff" d="M0 0h731v108H0z"/></mask><g mask="url(#a)"><path d="M231.942 50c-36.73 36-77.674 54.333-96.942 58h62.621c21.074-7.5 53.589-16.167 92.124-41.5C328.281 41.167 347.549 15.833 362 0h-94.533c1.204 1 .06 15.121-35.525 50z" fill="#0BA374"/><path d="M325.146 64.018C302.025 78.092 267.896 95 227 108h510V0H405.831c-27.698 27.855-57.563 49.944-80.685 64.018z" fill="#EF3D42"/><path d="M439.385 69.758C410.538 80.486 352.442 99.723 327 108h409.275c12.621-11.092 30.29-36.454 0-49.168C698.413 42.94 657.113 34 604.658 34c-63.104 0-117.794 18.103-165.273 35.758z" fill="#0BA374"/><path d="M642.323 52.63C583.854 48.565 515.339 65.155 485 74.465c19.49 0 66.908 1.422 100.663 7.11 33.755 5.688 62.688 20.653 72.935 27.424h78.36L746 95.288l-9.042-22.345c-9.443-4.74-41.457-16.619-94.635-20.314z" fill="#fff"/><path d="M642.585 61.777c-57.803-8.311-127.074 4.613-158.272 12.745 19.411 1.294 65.771 6.6 98.789 15.04 33.019 8.44 60.257 26.67 69.748 34.73l78.042 5.204 10.451-14.343-6.649-24.953c-8.905-5.793-39.537-20.864-92.109-28.423z" fill="#E84342"/></g></svg>